HIERARCHY
ROOT Hips
{
	OFFSET -0.001795 -0.223333 0.028219
	CHANNELS 6 Xposition Yposition Zposition Zrotation Yrotation Xrotation 
	JOINT LeftUpLeg
	{
		OFFSET 0.069520 -0.091406 -0.006815
		CHANNELS 3 Zrotation Yrotation Xrotation
		JOINT LeftLeg
		{
			OFFSET 0.034277 -0.375199 -0.004496
			CHANNELS 3 Zrotation Yrotation Xrotation
			JOINT LeftFoot
			{
				OFFSET -0.013596 -0.397961 -0.043693
				CHANNELS 3 Zrotation Yrotation Xrotation
				JOINT LeftToe
				{
					OFFSET 0.026358 -0.055791 0.119288
					CHANNELS 3 Zrotation Yrotation Xrotation
					End Site
					{
						OFFSET 0.000000 0.000000 0.000000
					}
				}
			}
		}
	}
	JOINT RightUpLeg
	{
		OFFSET -0.067670 -0.090522 -0.004320
		CHANNELS 3 Zrotation Yrotation Xrotation
		JOINT RightLeg
		{
			OFFSET -0.038290 -0.382569 -0.008850
			CHANNELS 3 Zrotation Yrotation Xrotation
			JOINT RightFoot
			{
				OFFSET 0.015774 -0.398415 -0.042312
				CHANNELS 3 Zrotation Yrotation Xrotation
				JOINT RightToe
				{
					OFFSET -0.025372 -0.048144 0.123348
					CHANNELS 3 Zrotation Yrotation Xrotation
					End Site
					{
						OFFSET 0.000000 0.000000 0.000000
					}
				}
			}
		}
	}
	JOINT Spine
	{
		OFFSET -0.002533 0.108963 -0.026696
		CHANNELS 3 Zrotation Yrotation Xrotation
		JOINT Spine1
		{
			OFFSET 0.005487 0.135180 0.001092
			CHANNELS 3 Zrotation Yrotation Xrotation
			JOINT Spine2
			{
				OFFSET 0.001457 0.052922 0.025425
				CHANNELS 3 Zrotation Yrotation Xrotation
				JOINT Neck
				{
					OFFSET -0.002778 0.213870 -0.042857
					CHANNELS 3 Zrotation Yrotation Xrotation
					JOINT Head
					{
						OFFSET 0.005152 0.064970 0.051349
						CHANNELS 3 Zrotation Yrotation Xrotation
						End Site
						{
							OFFSET 0.000000 0.000000 0.000000
						}
					}
				}
				JOINT LeftShoulder
				{
					OFFSET 0.078845 0.121749 -0.034090
					CHANNELS 3 Zrotation Yrotation Xrotation
					JOINT LeftArm
					{
						OFFSET 0.090977 0.030469 -0.008868
						CHANNELS 3 Zrotation Yrotation Xrotation
						JOINT LeftForeArm
						{
							OFFSET 0.259612 -0.012772 -0.027456
							CHANNELS 3 Zrotation Yrotation Xrotation
							JOINT LeftHand
							{
								OFFSET 0.249234 0.008986 -0.001171
								CHANNELS 3 Zrotation Yrotation Xrotation
								End Site
								{
									OFFSET 0.000000 0.000000 0.000000
								}
							}
						}
					}
				}
				JOINT RightShoulder
				{
					OFFSET -0.081759 0.118833 -0.038615
					CHANNELS 3 Zrotation Yrotation Xrotation
					JOINT RightArm
					{
						OFFSET -0.096012 0.032551 -0.009143
						CHANNELS 3 Zrotation Yrotation Xrotation
						JOINT RightForeArm
						{
							OFFSET -0.253742 -0.013329 -0.021401
							CHANNELS 3 Zrotation Yrotation Xrotation
							JOINT RightHand
							{
								OFFSET -0.255298 0.007772 -0.005559
								CHANNELS 3 Zrotation Yrotation Xrotation
								End Site
								{
									OFFSET 0.000000 0.000000 0.000000
								}
							}
						}
					}
				}
			}
		}
	}
}
MOTION
Frames: 12
Frame Time: 0.050000
0.000000 0.957133 0.000000 -2.127058 0.498482 2.498499 6.761818 -0.077292 1.855395 -0.546911 0.242453 -6.348701 2.533055 8.837897 12.182110 0.000000 0.000000 0.000000 -2.409563 0.178739 -1.375317 -1.107581 -0.104883 -4.502486 3.240301 1.196488 12.441557 0.000000 0.000000 0.000000 4.330859 0.170033 -3.114396 -1.499500 0.749655 -2.758138 -3.769279 2.356029 7.600202 8.368547 -3.939505 -14.697230 0.000000 0.000000 0.000000 -17.600829 -5.227972 0.314687 -54.081750 -2.425267 -5.513806 -10.605506 -25.913510 3.275994 0.000000 0.000000 0.000000 16.713348 -4.511351 -3.106226 64.248108 1.496111 -5.639870 6.519091 32.421243 3.326392 0.000000 0.000000 0.000000 
-0.000050 0.956382 0.001067 -2.207786 -0.527929 3.033954 6.543665 -0.057415 1.949531 -0.458857 0.268585 -7.263268 3.441553 10.169080 12.125232 0.000000 0.000000 0.000000 -2.604501 0.276697 -2.497090 -0.784946 -0.071985 -3.303765 3.479616 1.750829 11.934109 0.000000 0.000000 0.000000 5.206326 0.211103 -3.554758 -2.251689 1.073729 -1.579374 -4.390040 3.293720 5.923069 9.592661 -4.645266 -14.545722 0.000000 0.000000 0.000000 -18.323309 -5.193635 0.037843 -53.266428 -1.594683 -5.580859 -11.223764 -25.983746 3.366704 0.000000 0.000000 0.000000 16.455092 -5.485541 -3.526147 65.504579 -0.009059 -6.350503 6.183337 33.333938 3.353853 0.000000 0.000000 0.000000 
-0.000034 0.955653 0.001841 -1.791428 -0.703442 2.802302 6.420914 -0.036677 2.192199 -0.966400 0.276272 -6.627044 3.390461 10.086138 12.193166 0.000000 0.000000 0.000000 -2.678737 0.247316 -2.119785 -1.392156 -0.035356 -3.471050 3.426067 1.626336 11.906847 0.000000 0.000000 0.000000 4.879659 0.194153 -3.345315 -1.410235 0.699407 -2.770798 -5.286544 3.548085 6.510179 9.152907 -4.431127 -14.162169 0.000000 0.000000 0.000000 -18.211146 -5.575082 0.189442 -53.341200 -1.020626 -5.890164 -11.670103 -25.672467 3.416493 0.000000 0.000000 0.000000 17.707958 -4.302975 -2.939153 64.192155 0.520755 -6.061671 5.274093 32.502363 3.035958 0.000000 0.000000 0.000000 
-0.000127 0.955678 0.002727 -2.021413 -0.824278 2.739697 6.460496 -0.028242 2.399225 -0.794986 0.278273 -7.004924 3.495966 10.217657 12.055309 0.000000 0.000000 0.000000 -2.452646 0.253844 -2.239553 -1.548915 -0.031705 -3.614305 3.904744 2.369273 12.275204 0.000000 0.000000 0.000000 5.208207 0.213648 -3.504994 -1.630452 0.793069 -2.212645 -5.197030 3.265284 5.440079 9.429432 -4.796748 -13.175547 0.000000 0.000000 0.000000 -18.388663 -5.526759 0.187181 -53.888604 -0.352744 -6.161697 -10.692678 -25.513522 3.179786 0.000000 0.000000 0.000000 16.861194 -3.928703 -2.759184 65.011210 0.384663 -6.072994 4.263366 31.266481 2.572730 0.000000 0.000000 0.000000 
-0.000282 0.955447 0.003597 -1.848731 -0.546822 2.608661 5.974695 -0.000280 2.708180 -0.354560 0.258764 -7.095892 3.160285 9.731412 12.173038 0.000000 0.000000 0.000000 -2.600544 0.222292 -1.833711 -1.666177 -0.047833 -4.086407 3.612773 1.813468 12.326728 0.000000 0.000000 0.000000 5.035646 0.208963 -3.467225 -1.352908 0.668947 -2.180287 -5.503939 3.129730 5.043164 9.116950 -4.721137 -12.414586 0.000000 0.000000 0.000000 -18.997116 -5.557507 0.104499 -53.419698 -0.370776 -6.032252 -11.298581 -24.739103 3.201985 0.000000 0.000000 0.000000 17.175020 -4.121301 -2.880238 64.290365 0.466213 -5.936149 4.772933 29.947076 2.563967 0.000000 0.000000 0.000000 
-0.000528 0.955061 0.004407 -1.801294 -0.261019 2.471790 5.785480 0.019237 3.059557 -0.101460 0.252169 -7.278827 3.146103 9.632849 11.668717 0.000000 0.000000 0.000000 -2.595048 0.203204 -1.614224 -1.877165 -0.042495 -4.264851 3.629201 1.845947 12.416354 0.000000 0.000000 0.000000 5.006796 0.207683 -3.443666 -1.253362 0.624851 -2.100079 -5.498960 2.874069 4.820986 9.018004 -4.752972 -11.926883 0.000000 0.000000 0.000000 -19.463704 -5.499621 0.042614 -53.584496 -0.444266 -5.993974 -10.445186 -24.223722 2.956409 0.000000 0.000000 0.000000 16.872556 -3.741018 -2.676900 64.226981 0.395351 -5.945234 4.164975 29.063341 2.310411 0.000000 0.000000 0.000000 
-0.000922 0.954670 0.004850 -1.698478 0.196916 2.569802 5.611826 0.020503 3.113335 0.052190 0.259689 -7.741209 3.020252 9.582648 12.176293 0.000000 0.000000 0.000000 -2.598264 0.173928 -1.251709 -2.061112 -0.068564 -4.953365 3.778188 2.063662 12.718089 0.000000 0.000000 0.000000 4.900863 0.210551 -3.536950 -1.167226 0.586909 -2.013329 -5.568465 2.654538 4.638988 9.155198 -4.806374 -12.059392 0.000000 0.000000 0.000000 -19.780785 -5.267203 -0.134852 -53.655805 -0.160007 -6.096635 -10.583622 -23.792295 2.925735 0.000000 0.000000 0.000000 16.775396 -3.881912 -2.738420 64.104910 0.143168 -6.041446 4.275863 28.555932 2.286278 0.000000 0.000000 0.000000 
-0.001429 0.954459 0.004924 -1.796330 0.352807 2.721033 5.490422 0.012326 2.901873 0.303346 0.249412 -7.752875 3.019273 9.492808 11.710540 0.000000 0.000000 0.000000 -2.413984 0.176771 -1.324424 -2.160313 -0.064646 -4.994682 4.077138 2.757091 12.544086 0.000000 0.000000 0.000000 4.968221 0.203474 -3.481599 -1.107815 0.559869 -1.974503 -5.638457 2.641565 4.198579 9.664935 -5.088133 -12.221024 0.000000 0.000000 0.000000 -20.042872 -5.236889 -0.223862 -53.428935 0.119644 -6.129676 -10.308397 -23.772867 2.855079 0.000000 0.000000 0.000000 16.740824 -3.808149 -2.687370 63.971915 -0.007861 -6.058582 4.405998 27.387288 2.197911 0.000000 0.000000 0.000000 
-0.002004 0.954406 0.004664 -1.766399 0.486376 2.849122 5.503777 -0.003772 2.623979 0.111760 0.256220 -7.738824 2.947058 9.317384 11.390099 0.000000 0.000000 0.000000 -2.358676 0.178112 -1.348465 -2.289493 -0.066739 -5.165514 4.379757 3.410393 12.466182 0.000000 0.000000 0.000000 4.789741 0.181991 -3.282717 -1.028383 0.526608 -2.103912 -5.426386 2.549268 4.098726 9.818204 -5.135894 -12.486356 0.000000 0.000000 0.000000 -20.132465 -4.883086 -0.407421 -53.697359 0.083727 -6.145817 -9.967385 -23.489742 2.753925 0.000000 0.000000 0.000000 16.543919 -3.707322 -2.635582 63.618606 -0.440391 -6.243854 4.906839 26.934808 2.253951 0.000000 0.000000 0.000000 
-0.002607 0.954581 0.004177 -1.742720 0.369846 3.042781 5.406120 -0.005931 2.497304 0.101261 0.259732 -7.818992 3.045072 9.418948 11.193065 0.000000 0.000000 0.000000 -2.365867 0.189352 -1.467454 -2.338603 -0.078424 -5.398920 4.840490 4.224977 12.605413 0.000000 0.000000 0.000000 4.720703 0.174427 -3.230776 -1.073030 0.548684 -2.280780 -5.183619 2.463542 4.123967 9.911348 -5.096549 -13.043570 0.000000 0.000000 0.000000 -20.060760 -4.604762 -0.493416 -54.079994 -0.073159 -6.142354 -9.786940 -23.386055 2.713969 0.000000 0.000000 0.000000 16.129653 -3.346006 -2.451574 63.639417 -0.427047 -6.235347 5.239202 26.065660 2.223787 0.000000 0.000000 0.000000 
-0.003200 0.954706 0.003623 -1.767642 0.450293 3.086889 5.581244 -0.018585 2.417362 -0.056722 0.270015 -7.950441 2.928913 9.216337 11.098590 0.000000 0.000000 0.000000 -2.267622 0.194742 -1.554443 -2.494129 -0.077484 -5.531493 5.173698 4.913182 12.566655 0.000000 0.000000 0.000000 4.654453 0.165628 -3.143803 -1.053045 0.536501 -2.068286 -5.026816 2.338108 4.024614 10.240522 -5.243368 -13.396557 0.000000 0.000000 0.000000 -20.044139 -4.536568 -0.499454 -54.183677 -0.277469 -6.062826 -9.172455 -23.258134 2.579840 0.000000 0.000000 0.000000 16.024837 -3.215567 -2.401021 63.714451 -0.303640 -6.166111 5.277197 25.304914 2.144223 0.000000 0.000000 0.000000 
-0.003790 0.955048 0.003042 -1.757908 0.504324 3.296250 5.854461 -0.040337 2.260928 -0.381554 0.284582 -8.036540 2.924233 9.189714 11.004517 0.000000 0.000000 0.000000 -2.292507 0.210505 -1.730820 -2.502542 -0.076882 -5.527229 5.457616 5.478048 12.574524 0.000000 0.000000 0.000000 4.631098 0.162927 -3.158340 -1.063091 0.543018 -2.186777 -4.807086 2.080974 4.291233 10.453205 -5.322342 -13.841477 0.000000 0.000000 0.000000 -19.981099 -4.206601 -0.579902 -54.260258 -0.755128 -5.900907 -8.818080 -23.467365 2.548862 0.000000 0.000000 0.000000 15.811551 -2.931964 -2.288181 63.601289 -0.309148 -6.190047 5.720087 25.209957 2.211512 0.000000 0.000000 0.000000 
